<svg width="32" height="32" viewBox="0 0 32 32" fill="none" xmlns="http://www.w3.org/2000/svg">
<g clip-path="url(#clip0_18408_1875)">
<path d="M1.51604 22.1109C1.27594 21.6915 1.41985 21.1545 1.83747 20.9113L4.12063 19.582L6.46032 23.6686L4.17715 24.998C3.75953 25.2411 3.22634 25.0982 2.98624 24.6789L1.51604 22.1109Z" fill="#DD420A"/>
<path d="M12.6713 28.5086L9.85517 24.2583L5.44727 24.2583L10.0629 30.3229C10.3085 30.6457 10.7431 30.7552 11.1125 30.5874L13.0451 29.7096C13.4926 29.5063 13.442 28.8513 12.9688 28.7235C12.8469 28.6906 12.7412 28.6142 12.6713 28.5086Z" fill="#DD420A"/>
<path d="M10.1573 6.53157L20.6859 24.9215L11.6733 24.8601C10.4527 24.8518 9.23421 24.9755 8.03892 25.2291C6.23702 25.6114 4.39908 24.787 3.48189 23.1849L3.04667 22.4247C2.12948 20.8227 2.34043 18.8054 3.56971 17.4229C4.38515 16.5058 5.10061 15.5035 5.70378 14.4333L10.1573 6.53157Z" fill="#FB9123"/>
<path d="M8.87279 11.3661L10.0426 13.4094L9.85036 13.6686C8.20674 15.8841 6.28017 17.8724 4.12069 19.5818L4.52413 19.038C6.02977 17.0084 7.31376 14.822 8.35375 12.5167L8.87279 11.3661Z" fill="white"/>
<path d="M26.5658 9.23808C30.0753 15.3681 30.0222 22.2101 25.4016 24.9003C20.781 27.5905 13.9095 24.8825 10.356 18.6758C6.80253 12.4691 7.91272 5.11393 12.5333 2.42371C17.1539 -0.266515 23.0563 3.1081 26.5658 9.23808Z" fill="#FCD29A"/>
<ellipse cx="5.7723" cy="9.66101" rx="5.7723" ry="9.66101" transform="matrix(0.864196 -0.503155 0.496851 0.867836 9.68567 7.8877)" fill="#DD420A"/>
<ellipse cx="2.34463" cy="3.53176" rx="2.34463" ry="3.53176" transform="matrix(0.864196 -0.503155 0.496851 0.867836 14.8367 11.9204)" fill="#FB9123"/>
<path d="M29.416 6.22265C29.3329 6.09801 29.1983 6.0172 29.0493 6.00244C28.9002 5.98768 28.7524 6.04053 28.6465 6.14645L25.6465 9.14645C25.48 9.31287 25.4522 9.57282 25.5796 9.77069C25.707 9.96857 25.9552 10.0508 26.1756 9.96817L30.1756 8.46817C30.3184 8.41459 30.429 8.29871 30.4759 8.15349C30.5227 8.00827 30.5007 7.84961 30.416 7.72265L29.416 6.22265Z" fill="#DD420A"/>
<path d="M30.5 13C30.5 12.846 30.4291 12.7007 30.3077 12.6059C30.1863 12.5111 30.0281 12.4776 29.8787 12.5149L27.8787 13.0149C27.6561 13.0706 27.5 13.2706 27.5 13.5C27.5 13.7294 27.6561 13.9294 27.8787 13.9851L29.8787 14.4851C30.0281 14.5224 30.1863 14.4889 30.3077 14.3941C30.4291 14.2994 30.5 14.154 30.5 14V13Z" fill="#DD420A"/>
<path d="M24.2237 3.05279C24.0843 2.98309 23.9204 2.98238 23.7804 3.05084C23.6404 3.11931 23.5403 3.24913 23.5098 3.40194L23.0098 5.90194C22.964 6.13094 23.0828 6.36113 23.296 6.45645C23.5091 6.55177 23.7599 6.48682 23.9 6.3L25.4 4.3C25.489 4.18139 25.5207 4.02942 25.4867 3.88512C25.4526 3.74083 25.3563 3.61909 25.2237 3.55279L24.2237 3.05279Z" fill="#DD420A"/>
</g>
<defs>
<clipPath id="clip0_18408_1875">
<rect width="32" height="32" fill="white"/>
</clipPath>
</defs>
</svg>
